<svg xmlns="http://www.w3.org/2000/svg" font-family="-apple-system, system-ui, sans-serif" viewBox="0 0 800 200"><defs><marker id="arrowhead" markerHeight="7" markerWidth="10" orient="auto" refX="10" refY="3.5"><path fill="#666" d="m0 0 10 3.5L0 7z"/></marker><style>.box{fill:#1a1a1a;stroke:#0071e3;stroke-width:2}.label,.sub{fill:#e0e0e0;font-size:13px;text-anchor:middle}.sub{fill:#888;font-size:10px}.arrow{stroke:#666;stroke-width:2;fill:none;marker-end:url(#arrowhead)}</style></defs><path fill="#111" d="M0 0h800v200H0z"/><rect width="100" height="50" x="20" y="75" class="box" rx="8"/><text x="70" y="97" class="label">Browser</text><text x="70" y="113" class="sub">PWA</text><path d="M122 100h26" class="arrow"/><rect width="120" height="50" x="150" y="75" class="box" rx="8"/><text x="210" y="97" class="label">React App</text><text x="210" y="113" class="sub">Vite + MapLibre</text><path d="M272 100h26" class="arrow"/><rect width="140" height="50" x="300" y="75" class="box" rx="8"/><text x="370" y="97" class="label">Vercel Gateway</text><text x="370" y="113" class="sub">api/gateway.js</text><path d="m440 88 26-48" class="arrow"/><path d="m440 95 26-15" class="arrow"/><path d="m440 100 26 15" class="arrow"/><path d="m440 108 26 47" class="arrow"/><path d="m440 112 26 63" class="arrow"/><rect width="120" height="38" x="468" y="15" class="box" rx="8"/><text x="528" y="35" class="label">FMP API</text><text x="528" y="48" class="sub">stocks (primary)</text><rect width="120" height="38" x="468" y="60" class="box" rx="8"/><text x="528" y="80" class="label">Yahoo Finance</text><text x="528" y="93" class="sub">fallback</text><rect width="120" height="38" x="468" y="100" class="box" rx="8"/><text x="528" y="120" class="label">Vercel KV</text><text x="528" y="133" class="sub">sessions + portfolio</text><rect width="120" height="38" x="468" y="140" class="box" rx="8"/><text x="528" y="160" class="label">Stripe</text><text x="528" y="173" class="sub">billing</text><rect width="120" height="50" x="600" y="75" class="box" rx="8"/><text x="660" y="97" class="label">Polymarket</text><text x="660" y="113" class="sub">prediction markets</text><path d="M590 100h8" class="arrow"/></svg>