<svg xmlns="http://www.w3.org/2000/svg" font-family="-apple-system, system-ui, sans-serif" viewBox="0 0 1000 480"><defs><marker id="arrowhead" markerHeight="7" markerWidth="10" orient="auto" refX="10" refY="3.5"><path fill="#86868b" d="m0 0 10 3.5L0 7z"/></marker></defs><path fill="#fff" d="M0 0h1000v480H0z"/><rect width="150" height="90" x="20" y="195" fill="#f5f5f7" stroke="#d2d2d7" stroke-width="2" rx="12"/><text x="95" y="225" fill="#1d1d1f" font-size="14" font-weight="700" text-anchor="middle">Clients</text><text x="95" y="245" fill="#6e6e73" font-size="11" text-anchor="middle">Web (PWA)</text><text x="95" y="260" fill="#6e6e73" font-size="11" text-anchor="middle">iOS / macOS / watchOS</text><text x="95" y="275" fill="#6e6e73" font-size="11" text-anchor="middle">Fraunces landing page</text><path d="M172 240h38" stroke="#86868b" stroke-width="2" fill="none" marker-end="url(#arrowhead)"/><rect width="170" height="90" x="212" y="195" fill="#f5f5f7" stroke="#0071e3" stroke-width="2" rx="12"/><text x="297" y="225" fill="#1d1d1f" font-size="14" font-weight="700" text-anchor="middle">Vercel Gateway</text><text x="297" y="245" fill="#6e6e73" font-size="11" text-anchor="middle">api/gateway.js</text><text x="297" y="260" fill="#6e6e73" font-size="11" text-anchor="middle">critical routes static,</text><text x="297" y="275" fill="#6e6e73" font-size="11" text-anchor="middle">rest lazy-loaded</text><path d="m422 210 46-95" stroke="#86868b" stroke-width="1.5" fill="none" marker-end="url(#arrowhead)"/><path d="m422 218 46-40" stroke="#86868b" stroke-width="1.5" fill="none" marker-end="url(#arrowhead)"/><path d="m422 230 46-6" stroke="#86868b" stroke-width="1.5" fill="none" marker-end="url(#arrowhead)"/><path d="m422 245 46 8" stroke="#86868b" stroke-width="1.5" fill="none" marker-end="url(#arrowhead)"/><path d="m422 258 46 40" stroke="#86868b" stroke-width="1.5" fill="none" marker-end="url(#arrowhead)"/><path d="m422 272 46 95" stroke="#86868b" stroke-width="1.5" fill="none" marker-end="url(#arrowhead)"/><g fill="#f5f5f7" stroke="#d2d2d7" stroke-width="1.5"><rect width="190" height="46" x="480" y="20" rx="10"/><rect width="190" height="46" x="480" y="76" rx="10"/><rect width="190" height="46" x="480" y="132" rx="10"/><rect width="190" height="46" x="480" y="188" rx="10"/><rect width="190" height="46" x="480" y="244" rx="10"/><rect width="190" height="46" x="480" y="300" rx="10"/><rect width="190" height="46" x="480" y="356" rx="10"/><rect width="190" height="46" x="480" y="412" rx="10"/></g><g fill="#1d1d1f" font-size="12" font-weight="700" text-anchor="middle"><text x="575" y="40">Auth</text><text x="575" y="96">Live Map (11 layers)</text><text x="575" y="152">Stocks + History</text><text x="575" y="208">Portfolio + KV</text><text x="575" y="264">Brokerage Sync</text><text x="575" y="320">Billing</text><text x="575" y="376">People / Ontology</text><text x="575" y="432">Avatar</text></g><g fill="#6e6e73" font-size="10" text-anchor="middle"><text x="575" y="53">email/pw, GitHub OAuth</text><text x="575" y="109">USGS, GDELT, OSM, adsb.lol...</text><text x="575" y="165">Yahoo v10 / FMP, quotes+history</text><text x="575" y="221">Upstash Redis via _kv.js</text><text x="575" y="277">SnapTrade (read-only)</text><text x="575" y="333">Stripe, $1/wk premium</text><text x="575" y="389">relationship graph</text><text x="575" y="445">Blob storage, SVG/JPEG</text></g><path d="M670 245h30" stroke="#86868b" stroke-width="2" fill="none" marker-end="url(#arrowhead)"/><rect width="180" height="60" x="700" y="215" fill="#f5f5f7" stroke="#d2d2d7" stroke-width="2" rx="12"/><text x="790" y="240" fill="#1d1d1f" font-size="13" font-weight="700" text-anchor="middle">External APIs</text><text x="790" y="258" fill="#6e6e73" font-size="10" text-anchor="middle">Polymarket, PulsePoint,</text><text x="790" y="270" fill="#6e6e73" font-size="10" text-anchor="middle">Open-Meteo, NASA EONET</text></svg>
