<svg xmlns="http://www.w3.org/2000/svg" width="200" height="200" viewBox="0 0 200 200"><rect width="200" height="200" fill="#1a1a2e" stroke="#2a2a4a" rx="32"/><circle cx="100" cy="105" r="52" fill="none" stroke="#3a3a5a" stroke-width="1.2"/><ellipse cx="100" cy="105" fill="none" stroke="#3a3a5a" stroke-width=".8" rx="52" ry="20"/><ellipse cx="100" cy="105" fill="none" stroke="#3a3a5a" stroke-width=".8" rx="20" ry="52"/><path stroke="#3a3a5a" stroke-width=".8" d="M48 105h104m-52-52v104"/><ellipse cx="100" cy="80" fill="none" stroke="#3a3a5a" stroke-width=".5" rx="48" ry="12"/><ellipse cx="100" cy="130" fill="none" stroke="#3a3a5a" stroke-width=".5" rx="48" ry="12"/><g transform="translate(120 72)"><path fill="#059669" d="M0 0c-8 0-14 6-14 14 0 10 14 22 14 22s14-12 14-22C14 6 8 0 0 0" opacity=".9"/><circle cy="14" r="5" fill="#1a1a2e"/></g><g transform="translate(100 38)"><ellipse fill="none" stroke="#059669" stroke-width="1.5" opacity=".8" rx="14" ry="8"/><circle r="4" fill="#059669" opacity=".7"/><circle r="1.5" fill="#1a1a2e"/></g><circle cx="75" cy="95" r="2.5" fill="#059669" opacity=".6"/><circle cx="88" cy="120" r="2" fill="#059669" opacity=".5"/><circle cx="130" cy="110" r="2.5" fill="#059669" opacity=".6"/><circle cx="110" cy="140" r="2" fill="#059669" opacity=".4"/><circle cx="70" cy="115" r="1.5" fill="#059669" opacity=".5"/><circle cx="120" cy="86" r="6" fill="none" stroke="#059669" stroke-width=".5" opacity=".3"/><circle cx="120" cy="86" r="10" fill="none" stroke="#059669" stroke-width=".3" opacity=".15"/></svg>