<?xml version="1.0" encoding="UTF-8" standalone="no"?>
<svg width="192" height="192" xmlns="http://www.w3.org/2000/svg">
<g style="fill:black;fill-opacity:1;stroke:none;stroke-width:1;stroke-opacity:0;fill-rule:nonzero;">
<g style="fill:#1a2332;">
  <rect x="0" y="0" width="200" height="200" rx="40" ry="40"/>
</g>
<g style="stroke:#d97706;stroke-width:2;stroke-linecap:round;">
<g style="">
  <line x1="100" y1="48" x2="64" y2="74"/>
</g>
<g style="">
  <line x1="100" y1="48" x2="136" y2="74"/>
</g>
<g style="">
  <line x1="64" y1="74" x2="52" y2="108"/>
</g>
<g style="">
  <line x1="136" y1="74" x2="148" y2="108"/>
</g>
<g style="">
  <line x1="64" y1="74" x2="100" y2="100"/>
</g>
<g style="">
  <line x1="136" y1="74" x2="100" y2="100"/>
</g>
<g style="">
  <line x1="52" y1="108" x2="100" y2="100"/>
</g>
<g style="">
  <line x1="148" y1="108" x2="100" y2="100"/>
</g>
<g style="">
  <line x1="52" y1="108" x2="80" y2="148"/>
</g>
<g style="">
  <line x1="148" y1="108" x2="120" y2="148"/>
</g>
<g style="">
  <line x1="100" y1="100" x2="80" y2="148"/>
</g>
<g style="">
  <line x1="100" y1="100" x2="120" y2="148"/>
</g>
<g style="">
  <line x1="80" y1="148" x2="120" y2="148"/>
</g>
</g>
<g style="fill:#d97706;">
<g style="">
  <circle cx="100" cy="48" r="8"/>
</g>
<g style="">
  <circle cx="64" cy="74" r="7"/>
</g>
<g style="">
  <circle cx="136" cy="74" r="7"/>
</g>
<g style="">
  <circle cx="52" cy="108" r="7"/>
</g>
<g style="">
  <circle cx="100" cy="100" r="9"/>
</g>
<g style="">
  <circle cx="148" cy="108" r="7"/>
</g>
<g style="">
  <circle cx="80" cy="148" r="7"/>
</g>
<g style="">
  <circle cx="120" cy="148" r="7"/>
</g>
</g>
</g>
</svg>
