<svg xmlns="http://www.w3.org/2000/svg" width="600" height="400" viewBox="0 0 600 400"><path fill="#fff" d="M0 0h600v400H0z"/><rect width="160" height="80" x="40" y="60" fill="#f5f5f7" stroke="#d2d2d7" rx="12"/><text x="120" y="95" fill="#1d1d1f" font-family="-apple-system, SF Pro Display, sans-serif" font-size="13" font-weight="600" text-anchor="middle">Opticon macOS</text><text x="120" y="115" fill="#86868b" font-family="-apple-system, SF Pro Text, sans-serif" font-size="10" text-anchor="middle">SwiftUI + Charts</text><rect width="160" height="80" x="340" y="60" fill="#f5f5f7" stroke="#d2d2d7" rx="12"/><text x="420" y="95" fill="#1d1d1f" font-family="-apple-system, SF Pro Display, sans-serif" font-size="13" font-weight="600" text-anchor="middle">Vercel API</text><text x="420" y="115" fill="#86868b" font-family="-apple-system, SF Pro Text, sans-serif" font-size="10" text-anchor="middle">Next.js + KV</text><path stroke="#0071e3" stroke-width="1.5" marker-end="url(#a)" d="M200 100h140"/><text x="270" y="92" fill="#86868b" font-family="-apple-system, SF Pro Text, sans-serif" font-size="9" text-anchor="middle">HTTPS</text><rect width="160" height="60" x="340" y="200" fill="#f5f5f7" stroke="#d2d2d7" rx="12"/><text x="420" y="228" fill="#1d1d1f" font-family="-apple-system, SF Pro Display, sans-serif" font-size="13" font-weight="600" text-anchor="middle">Data Providers</text><text x="420" y="245" fill="#86868b" font-family="-apple-system, SF Pro Text, sans-serif" font-size="9" text-anchor="middle">GDELT, Yahoo, Polymarket</text><path stroke="#86868b" stroke-dasharray="4,3" d="M420 140v60"/><rect width="160" height="60" x="40" y="200" fill="#f5f5f7" stroke="#d2d2d7" rx="12"/><text x="120" y="228" fill="#1d1d1f" font-family="-apple-system, SF Pro Display, sans-serif" font-size="13" font-weight="600" text-anchor="middle">Keychain + Touch ID</text><text x="120" y="245" fill="#86868b" font-family="-apple-system, SF Pro Text, sans-serif" font-size="9" text-anchor="middle">LocalAuthentication</text><path stroke="#86868b" stroke-dasharray="4,3" d="M120 140v60"/><defs><marker id="a" markerHeight="6" markerWidth="8" orient="auto" refX="8" refY="3"><path fill="#0071e3" d="m0 0 8 3-8 3z"/></marker></defs></svg>