<svg xmlns="http://www.w3.org/2000/svg" width="1024" height="1024" viewBox="0 0 1024 1024">
  <rect width="1024" height="1024" rx="205" fill="#0f0f0f"/>
  <g stroke="rgba(255,255,255,0.22)" stroke-width="8" stroke-linecap="round">
    <line x1="512" y1="280" x2="348" y2="410"/>
    <line x1="512" y1="280" x2="676" y2="410"/>
    <line x1="348" y1="410" x2="276" y2="568"/>
    <line x1="676" y1="410" x2="748" y2="568"/>
    <line x1="348" y1="410" x2="512" y2="530"/>
    <line x1="676" y1="410" x2="512" y2="530"/>
    <line x1="276" y1="568" x2="512" y2="530"/>
    <line x1="748" y1="568" x2="512" y2="530"/>
    <line x1="276" y1="568" x2="420" y2="770"/>
    <line x1="748" y1="568" x2="604" y2="770"/>
    <line x1="512" y1="530" x2="420" y2="770"/>
    <line x1="512" y1="530" x2="604" y2="770"/>
    <line x1="420" y1="770" x2="604" y2="770"/>
  </g>
  <g fill="#7aab7a">
    <circle cx="512" cy="280" r="42"/>
    <circle cx="348" cy="410" r="37"/>
    <circle cx="676" cy="410" r="37"/>
    <circle cx="276" cy="568" r="37"/>
    <circle cx="512" cy="530" r="48"/>
    <circle cx="748" cy="568" r="37"/>
    <circle cx="420" cy="770" r="37"/>
    <circle cx="604" cy="770" r="37"/>
  </g>
</svg>
