<svg xmlns="http://www.w3.org/2000/svg" width="780" height="420" font-family="-apple-system, BlinkMacSystemFont, sans-serif" viewBox="0 0 780 420"><path d="M0 0h780v420H0z"/><text x="390" y="28" fill="#fff" font-size="14" font-weight="700" text-anchor="middle">Opticon iOS v2.0</text><text x="390" y="44" fill="#555" font-size="10" text-anchor="middle">5-Tab Financial Terminal</text><rect width="740" height="36" x="20" y="370" fill="#111" stroke="#333" rx="6"/><text x="94" y="392" fill="#0071e3" font-size="9" font-weight="600" text-anchor="middle">Markets</text><text x="234" y="392" fill="#888" font-size="9" text-anchor="middle">Predictions</text><text x="390" y="392" fill="#888" font-size="9" text-anchor="middle">Portfolio</text><text x="546" y="392" fill="#888" font-size="9" text-anchor="middle">Alerts</text><text x="686" y="392" fill="#888" font-size="9" text-anchor="middle">Settings</text><text x="20" y="72" fill="#555" font-size="9" font-weight="600" letter-spacing="1">VIEWS</text><rect width="130" height="70" x="20" y="80" fill="none" stroke="#0071e3" stroke-width="1.5" rx="8"/><text x="85" y="102" fill="#fff" font-size="11" font-weight="600" text-anchor="middle">MarketsView</text><text x="85" y="116" fill="#888" font-size="9" text-anchor="middle">Search + Watchlist</text><text x="85" y="130" fill="#888" font-size="9" text-anchor="middle">StockDetailView</text><text x="85" y="142" fill="#888" font-size="9" text-anchor="middle">Swift Charts</text><rect width="130" height="70" x="164" y="80" fill="none" stroke="#444" stroke-width="1.5" rx="8"/><text x="229" y="102" fill="#fff" font-size="11" font-weight="600" text-anchor="middle">PredictionsView</text><text x="229" y="116" fill="#888" font-size="9" text-anchor="middle">Polymarket Feed</text><text x="229" y="130" fill="#888" font-size="9" text-anchor="middle">MarketCard</text><rect width="130" height="70" x="308" y="80" fill="none" stroke="#444" stroke-width="1.5" rx="8"/><text x="373" y="102" fill="#fff" font-size="11" font-weight="600" text-anchor="middle">PortfolioView</text><text x="373" y="116" fill="#888" font-size="9" text-anchor="middle">Holdings + Value</text><text x="373" y="130" fill="#888" font-size="9" text-anchor="middle">HoldingRow</text><rect width="130" height="70" x="452" y="80" fill="none" stroke="#444" stroke-width="1.5" rx="8"/><text x="517" y="102" fill="#fff" font-size="11" font-weight="600" text-anchor="middle">AlertsView</text><text x="517" y="116" fill="#888" font-size="9" text-anchor="middle">CRUD + Swipe</text><text x="517" y="130" fill="#888" font-size="9" text-anchor="middle">CreateAlertSheet</text><rect width="130" height="70" x="596" y="80" fill="none" stroke="#444" stroke-width="1.5" rx="8"/><text x="661" y="102" fill="#fff" font-size="11" font-weight="600" text-anchor="middle">SettingsView</text><text x="661" y="116" fill="#888" font-size="9" text-anchor="middle">Tier + Account</text><text x="661" y="130" fill="#888" font-size="9" text-anchor="middle">Watchlist Mgmt</text><path stroke="#0071e3" stroke-dasharray="4,3" d="M85 150v40m144-40v40m144-40v40m144-40v40m144-40v40"/><text x="20" y="188" fill="#555" font-size="9" font-weight="600" letter-spacing="1">STATE</text><rect width="740" height="55" x="20" y="195" fill="none" stroke="#0071e3" stroke-width="1.5" rx="8"/><text x="390" y="218" fill="#0071e3" font-size="13" font-weight="700" text-anchor="middle">AppState (@Observable)</text><text x="390" y="236" fill="#888" font-size="10" text-anchor="middle">user | stocks | portfolio | watchlist | alerts | markets</text><path stroke="#444" marker-end="url(#a)" d="M200 250v24"/><path stroke="#444" marker-end="url(#a)" d="M580 250v24"/><text x="20" y="272" fill="#555" font-size="9" font-weight="600" letter-spacing="1">MODELS</text><rect width="120" height="40" x="20" y="280" fill="none" stroke="#333" rx="6"/><text x="80" y="300" fill="#aaa" font-size="10" text-anchor="middle">Stock / User</text><text x="80" y="314" fill="#666" font-size="8" text-anchor="middle">Portfolio</text><rect width="120" height="40" x="152" y="280" fill="none" stroke="#333" rx="6"/><text x="212" y="300" fill="#aaa" font-size="10" text-anchor="middle">WatchlistItem</text><text x="212" y="314" fill="#666" font-size="8" text-anchor="middle">PriceAlert</text><rect width="120" height="40" x="284" y="280" fill="none" stroke="#333" rx="6"/><text x="344" y="300" fill="#aaa" font-size="10" text-anchor="middle">PredictionMarket</text><text x="344" y="314" fill="#666" font-size="8" text-anchor="middle">PriceHistory</text><rect width="120" height="40" x="416" y="280" fill="none" stroke="#333" rx="6"/><text x="476" y="300" fill="#aaa" font-size="10" text-anchor="middle">FinanceData</text><text x="476" y="314" fill="#666" font-size="8" text-anchor="middle">Budget / Goals</text><text x="556" y="272" fill="#555" font-size="9" font-weight="600" letter-spacing="1">NETWORK</text><rect width="204" height="40" x="556" y="280" fill="none" stroke="#0071e3" rx="6"/><text x="658" y="300" fill="#0071e3" font-size="11" font-weight="600" text-anchor="middle">OpticonAPI</text><text x="658" y="314" fill="#888" font-size="8" text-anchor="middle">URLSession + Cookie Auth</text><path stroke="#0071e3" stroke-width="1.5" marker-end="url(#b)" d="M658 320v25"/><rect width="204" height="30" x="556" y="345" fill="#111" stroke="#333" rx="6"/><text x="658" y="365" fill="#888" font-size="10" text-anchor="middle">opticon.heyitsmejosh.com/api/*</text><defs><marker id="b" markerHeight="8" markerWidth="8" orient="auto" refX="6" refY="3"><path fill="#0071e3" d="M0 0v6l8-3z"/></marker><marker id="a" markerHeight="8" markerWidth="8" orient="auto" refX="6" refY="3"><path fill="#444" d="M0 0v6l8-3z"/></marker></defs></svg>